<?xml version="1.0" encoding="utf-8"?>
<!-- Generator: Adobe Illustrator 21.0.0, SVG Export Plug-In . SVG Version: 6.00 Build 0)  -->
<svg version="1.1" id="Layer_1" xmlns="http://www.w3.org/2000/svg" xmlns:xlink="http://www.w3.org/1999/xlink" x="0px" y="0px"
	 viewBox="0 0 422 336" style="enable-background:new 0 0 422 336;" xml:space="preserve">
<style type="text/css">
	.st0{fill:#12B1FF;stroke:#050505;stroke-width:5;stroke-miterlimit:10;}
</style>
<path class="st0" d="M118.1,107.4H92.9c-13.9,0-25.2,9.8-25.2,21.9v153.1c0,12.1,11.3,21.9,25.2,21.9h25.2
	c13.9,0,25.2-9.8,25.2-21.9V129.3C143.4,117.2,132.1,107.4,118.1,107.4z"/>
<path class="st0" d="M230.2,11.9h-26.6c-14.7,0-26.6,11.9-26.6,26.6v239.2c0,14.7,11.9,26.6,26.6,26.6h26.6
	c14.7,0,26.6-11.9,26.6-26.6V38.5C256.8,23.8,244.8,11.9,230.2,11.9z"/>
<path class="st0" d="M342.4,65h-26.6c-14.7,0-26.6,11.9-26.6,26.6v186.1c0,14.7,11.9,26.6,26.6,26.6h26.6
	c14.7,0,26.6-11.9,26.6-26.6V91.6C369,77,357.1,65,342.4,65z"/>
</svg>
