<?xml version="1.0" encoding="utf-8"?>
<!-- Generator: Adobe Illustrator 21.0.0, SVG Export Plug-In . SVG Version: 6.00 Build 0)  -->
<svg version="1.1" id="Layer_1" xmlns="http://www.w3.org/2000/svg" xmlns:xlink="http://www.w3.org/1999/xlink" x="0px" y="0px"
	 viewBox="0 0 219 174" style="enable-background:new 0 0 219 174;" xml:space="preserve">
<style type="text/css">
	.st0{fill:#FFE189;}
	.st1{opacity:0.7;fill:url(#SVGID_1_);}
	.st2{opacity:0.6;fill:#BCBEC0;}
	.st3{opacity:0.7;fill:url(#SVGID_2_);}
	.st4{fill:#FF5F5F;}
	.st5{fill:#F7394C;}
	.st6{fill:#E02D47;}
	.st7{fill:#FF5C74;}
	.st8{fill:#F7B92A;}
	.st9{fill:url(#SVGID_3_);}
	.st10{opacity:0.8;fill:#AF5E15;}
	.st11{fill:#C7C4C4;}
	.st12{opacity:0.7;fill:url(#SVGID_4_);}
	.st13{opacity:0.7;fill:url(#SVGID_5_);}
	.st14{opacity:0.6;}
	.st15{fill:#808285;}
	.st16{opacity:0.6;fill:#FFE189;}
	.st17{fill:#FDFDFD;}
</style>
<path class="st0" d="M91.5,78.6l7.1,6L163,15.9v0c-0.3-4.8-6.2-7-9.5-3.4L91.5,78.6z"/>
<linearGradient id="SVGID_1_" gradientUnits="userSpaceOnUse" x1="91.8491" y1="147.7757" x2="104.366" y2="147.7757">
	<stop  offset="0" style="stop-color:#474261"/>
	<stop  offset="0.2681" style="stop-color:#5E597B"/>
	<stop  offset="0.7858" style="stop-color:#948EB8"/>
</linearGradient>
<path class="st1" d="M93.4,149.6c0,0,2.4,0,6.1,0.1c4.2,0,3.6-3.5,0.2-3.5c-4.7,0.1-5.5-0.2-5.5-0.2L93.4,149.6z"/>
<path class="st2" d="M71.6,149.6c0,0,0.1,0.1,3.3-0.5c3.6-0.8,2.4-3.7-0.5-3c-4,0.9-2.9,0.3-2.9,0.3V149.6z"/>
<linearGradient id="SVGID_2_" gradientUnits="userSpaceOnUse" x1="104.3243" y1="154.9417" x2="111.5005" y2="154.9033">
	<stop  offset="0" style="stop-color:#474261"/>
	<stop  offset="0.3412" style="stop-color:#5E597B"/>
	<stop  offset="1" style="stop-color:#948EB8"/>
</linearGradient>
<path class="st3" d="M106.5,156.4c0,0,0.1,0.1,3,0c3.3-0.1,2.2-3-0.4-2.8c-3.7,0.2-2.6-0.2-2.6-0.2V156.4z"/>
<path class="st2" d="M90,157.7c0,0,0.1,0.1,1.5-0.2c1.6-0.3,1.1-1.7-0.2-1.4c-1.8,0.4-1.3,0.1-1.3,0.1V157.7z"/>
<path class="st2" d="M109.1,157.3c0,0,0.1,0.1,1.5-0.2c1.6-0.3,1.1-1.7-0.2-1.4c-1.8,0.4-1.3,0.1-1.3,0.1V157.3z"/>
<path class="st2" d="M60.1,131.7c0,0,0.1,0.1,1.5-0.2c1.6-0.3,1.1-1.7-0.2-1.4c-1.8,0.4-1.3,0.1-1.3,0.1V131.7z"/>
<path class="st2" d="M95.7,159.2c0,0,0.1,0.1,2.1-0.3c2.3-0.5,1.5-2.4-0.3-2c-2.6,0.6-1.9,0.2-1.9,0.2V159.2z"/>
<path class="st2" d="M62.2,147.8c0,0,0.2,0.2,3.7-0.6c4-0.9,2.7-4.1-0.5-3.4c-4.5,1-3.2,0.3-3.2,0.3V147.8z"/>
<path class="st4" d="M62.9,148.2c-0.9,0.2-3-1.2-3.1-1.7c-0.1-0.5-0.4-3.4,1.5-3.2c1.9,0.2,2.5-0.3,3.6,0.8
	C66,145.4,64,148,62.9,148.2z"/>
<path class="st4" d="M69.1,150.5c-0.8-0.4-1.3-3,0-3.5c1.3-0.5,3.2-1.9,3.9-0.8c0.7,1,1.2,0.4,0.8,2
	C73.5,149.7,70.2,151.1,69.1,150.5z"/>
<path class="st4" d="M90.4,157.8c-0.8,0.2-1.3-0.3-1.8-0.6c-0.5-0.4-0.7-1.2,0-1.2c0.7,0,2.8,0.5,2.7,0.6
	C91.2,156.6,90.8,157.6,90.4,157.8z"/>
<path class="st4" d="M104.8,155.5c-0.3-0.5-0.3-1.8,0-2.3c0.4-0.5,1.9-1,2.4-0.6c0.4,0.3,0,1,0,2c0,1-0.7,1.8-0.8,1.7
	C106.4,156.2,105,155.9,104.8,155.5z"/>
<path class="st4" d="M91,148.8c-0.6-0.7-0.8-2.8-0.5-3.7c0.4-1.1,2.5-2.5,4.2-2c1.6,0.5,4.2,1.4,3.3,2.9c-0.8,1.5-0.9,2.4-1.5,2.9
	c-0.5,0.4-1.9,0.8-2.6,0.8C93.1,149.6,91.5,149.4,91,148.8z"/>
<path class="st4" d="M59.9,129.6c0.4,0.1,1,1,1,1.2c0,0.2-0.4,1.4-1.1,1.1c-0.7-0.4-1.1-0.3-1.3-0.9
	C58.1,130.3,59.4,129.5,59.9,129.6z"/>
<path class="st4" d="M109.9,155.9c0.2,0.3,0.1,1.4-0.6,1.4c-0.6,0-1.6,0.2-1.7-0.3c-0.1-0.5-0.4-0.4,0-0.9
	C108,155.5,109.5,155.5,109.9,155.9z"/>
<path class="st4" d="M96.9,157.4c0.1,0.4-0.1,1.3-0.4,1.6c-0.3,0.4-1.4,0.6-2,0.2c-0.6-0.5-1.5-1.2-0.9-1.7c0.6-0.5,0.7-0.8,1.1-0.9
	c0.3-0.1,0.9,0,1.2,0.1C96.1,156.7,96.7,157.1,96.9,157.4z"/>
<path class="st5" d="M64.1,119.2c0,0,3,4,6.6,7.7c3.6,3.8,6.7,6.3,6.7,6.3c0.4,0.3,0.8,0.6,1.3,0.9c1,0.6,3.1,0.9,5.2,0.9
	c2.1,0,4.2-0.2,4.9-0.7c0.6-0.4,1.1-0.9,1.7-1.5l27.1-28.4c3.6-3.8,3.6-9.8,0-13.6l-5.6-5.9l-1.9-2l-5.6-5.9
	c-3.6-3.8-9.4-3.8-12.9,0l-27.1,28.4C60.8,109.4,60.5,114.1,64.1,119.2z"/>
<path class="st6" d="M116.2,89.5l-5.6-5.9l-1.9-2l-5.6-5.9c-1.3-1.3-2.8-2.2-4.5-2.6l4,4.2l1.9,2l5.6,5.9c3.6,3.8,3.6,9.8,0,13.6
	L83,127.3c-0.5,0.6-1.1,1.1-1.7,1.5c-0.7,0.5-2.7,0.7-4.9,0.7c-1.3,0-2.5-0.1-3.5-0.4c1.9,1.8,3.2,2.8,3.2,2.8
	c0.4,0.3,0.8,0.6,1.3,0.9c1,0.6,3.1,0.9,5.2,0.9c2.1,0,4.2-0.2,4.9-0.7c0.6-0.4,1.1-0.9,1.7-1.5l27.1-28.4
	C119.7,99.4,119.7,93.3,116.2,89.5z"/>
<path class="st7" d="M81.7,91.1L66.6,107l-1.5,1.6l-0.2,0.2c-2.2,2.3,10.7,15.7,12.8,13.5l0.2-0.2l1.5-1.6l15.2-15.9L81.7,91.1z"/>
<path class="st8" d="M122.3,78.4l-6.8-7.1c-1.6-1.7-1.6-4.4,0-6.1L163,15.4c0.8-0.9,2-1.4,3.2-1.4h0.9c8.7,0,13.1,10.4,7.1,16.7
	l-45.5,47.7C127,80.2,124.1,80.2,122.3,78.4z"/>
<linearGradient id="SVGID_3_" gradientUnits="userSpaceOnUse" x1="144.3743" y1="61.4284" x2="177.7002" y2="94.7544">
	<stop  offset="0" style="stop-color:#DB7A14"/>
	<stop  offset="9.974782e-03" style="stop-color:#DB7B18"/>
	<stop  offset="8.891143e-02" style="stop-color:#DB8335"/>
	<stop  offset="0.1735" style="stop-color:#DB894B"/>
	<stop  offset="0.2655" style="stop-color:#DB8E5B"/>
	<stop  offset="0.3701" style="stop-color:#DB9064"/>
	<stop  offset="0.5149" style="stop-color:#DB9167"/>
</linearGradient>
<path class="st9" d="M117.9,102.5l-6.4-6.8L176.2,28h0c4.8,0,7.3,5.8,4,9.3L117.9,102.5z"/>
<polygon class="st10" points="135.4,85.1 109.7,58 111.6,56 137.3,83.1 "/>
<polygon class="st11" points="100.3,124.3 72.3,94.9 109.5,55.8 137.5,85.2 "/>
<linearGradient id="SVGID_4_" gradientUnits="userSpaceOnUse" x1="-11720.9932" y1="-177.2825" x2="-11677.0977" y2="-177.2825" gradientTransform="matrix(-0.6956 -0.6955 0.6956 -0.6955 -7918.2012 -8178.7036)">
	<stop  offset="0.1165" style="stop-color:#231F20"/>
	<stop  offset="0.7018" style="stop-color:#FFFFFF"/>
</linearGradient>
<polygon class="st12" points="86.6,108.8 75.5,97.1 111.5,59.2 122.6,70.9 "/>
<linearGradient id="SVGID_5_" gradientUnits="userSpaceOnUse" x1="-10146.8584" y1="-282.9609" x2="-10181.9854" y2="-282.9609" gradientTransform="matrix(-0.9414 -0.9217 0.707 -0.7072 -9256.4697 -9470.9678)">
	<stop  offset="0" style="stop-color:#FFFFFF"/>
	<stop  offset="1" style="stop-color:#231F20"/>
</linearGradient>
<polygon class="st13" points="97.2,120.8 89.8,113.2 127,74.2 134.3,81.7 "/>
<g>
	<g class="st14">
		<g>
			<polygon class="st15" points="111.7,112.2 83.7,82.8 84.9,81.6 112.9,111 			"/>
		</g>
		<g>
			<polygon class="st15" points="109,115.1 81,85.7 82.2,84.4 110.2,113.9 			"/>
		</g>
		<g>
			<polygon class="st15" points="106.3,118 78.3,88.6 79.5,87.3 107.5,116.7 			"/>
		</g>
	</g>
</g>
<g>
	<g class="st14">
		<g>
			<polygon class="st15" points="131.7,91.2 103.7,61.8 104.9,60.6 132.9,90 			"/>
		</g>
		<g>
			<polygon class="st15" points="129,94.1 101,64.7 102.2,63.4 130.2,92.8 			"/>
		</g>
		<g>
			<polygon class="st15" points="126.3,97 98.3,67.5 99.5,66.3 127.5,95.7 			"/>
		</g>
	</g>
</g>
<g>
	<polygon class="st6" points="100.3,124.3 72.3,94.9 73.5,93.6 101.5,123 	"/>
</g>
<g>
	<polygon class="st16" points="136.3,86.5 108.3,57.1 109.5,55.8 137.4,85.2 	"/>
</g>
<g>
	<polygon class="st17" points="122.9,72.5 111.3,60.3 112.5,59.1 124.1,71.3 	"/>
</g>
</svg>
