<?xml version="1.0" encoding="utf-8"?>
<!-- Generator: Adobe Illustrator 21.0.0, SVG Export Plug-In . SVG Version: 6.00 Build 0)  -->
<svg version="1.1" id="Layer_1" xmlns="http://www.w3.org/2000/svg" xmlns:xlink="http://www.w3.org/1999/xlink" x="0px" y="0px"
	 viewBox="0 0 219 174" style="enable-background:new 0 0 219 174;" xml:space="preserve">
<style type="text/css">
	.st0{opacity:0.7;fill:url(#SVGID_1_);}
	.st1{opacity:0.6;fill:#BCBEC0;}
	.st2{opacity:0.7;fill:url(#SVGID_2_);}
	.st3{fill:#FF5F5F;}
	.st4{fill:#F7394C;}
	.st5{fill:#E02D47;}
	.st6{fill:#FF5C74;}
	.st7{fill:#F7B92A;}
	.st8{fill:#FFE189;}
	.st9{fill:url(#SVGID_3_);}
	.st10{opacity:0.8;fill:#AF5E15;}
	.st11{fill:#C7C4C4;}
	.st12{opacity:0.7;fill:url(#SVGID_4_);}
	.st13{opacity:0.7;fill:url(#SVGID_5_);}
	.st14{opacity:0.6;}
	.st15{fill:#808285;}
	.st16{opacity:0.6;fill:#FFE189;}
	.st17{fill:#FDFDFD;}
</style>
<linearGradient id="SVGID_1_" gradientUnits="userSpaceOnUse" x1="79.8491" y1="136.7757" x2="92.366" y2="136.7757">
	<stop  offset="0" style="stop-color:#474261"/>
	<stop  offset="0.2681" style="stop-color:#5E597B"/>
	<stop  offset="0.7858" style="stop-color:#948EB8"/>
</linearGradient>
<path class="st0" d="M81.4,138.6c0,0,2.4,0,6.1,0.1c4.2,0,3.6-3.5,0.2-3.5c-4.7,0.1-5.5-0.2-5.5-0.2L81.4,138.6z"/>
<path class="st1" d="M59.6,138.6c0,0,0.1,0.1,3.3-0.5c3.6-0.8,2.4-3.7-0.5-3c-4,0.9-2.9,0.3-2.9,0.3V138.6z"/>
<linearGradient id="SVGID_2_" gradientUnits="userSpaceOnUse" x1="92.3243" y1="143.9417" x2="99.5005" y2="143.9033">
	<stop  offset="0" style="stop-color:#474261"/>
	<stop  offset="0.3412" style="stop-color:#5E597B"/>
	<stop  offset="1" style="stop-color:#948EB8"/>
</linearGradient>
<path class="st2" d="M94.5,145.4c0,0,0.1,0.1,3,0c3.3-0.1,2.2-3-0.4-2.8c-3.7,0.2-2.6-0.2-2.6-0.2V145.4z"/>
<path class="st1" d="M78,146.7c0,0,0.1,0.1,1.5-0.2c1.6-0.3,1.1-1.7-0.2-1.4c-1.8,0.4-1.3,0.1-1.3,0.1V146.7z"/>
<path class="st1" d="M109.1,157.3c0,0,0.1,0.1,1.5-0.2c1.6-0.3,1.1-1.7-0.2-1.4c-1.8,0.4-1.3,0.1-1.3,0.1V157.3z"/>
<path class="st1" d="M48.1,120.7c0,0,0.1,0.1,1.5-0.2c1.6-0.3,1.1-1.7-0.2-1.4c-1.8,0.4-1.3,0.1-1.3,0.1V120.7z"/>
<path class="st1" d="M95.7,159.2c0,0,0.1,0.1,2.1-0.3c2.3-0.5,1.5-2.4-0.3-2c-2.6,0.6-1.9,0.2-1.9,0.2V159.2z"/>
<path class="st1" d="M50.2,136.8c0,0,0.2,0.2,3.7-0.6c4-0.9,2.7-4.1-0.5-3.4c-4.5,1-3.2,0.3-3.2,0.3V136.8z"/>
<path class="st3" d="M50.9,137.2c-0.9,0.2-3-1.2-3.1-1.7c-0.1-0.5-0.4-3.4,1.5-3.2c1.9,0.2,2.5-0.3,3.6,0.8
	C54,134.4,52,137,50.9,137.2z"/>
<path class="st3" d="M57.1,139.5c-0.8-0.4-1.3-3,0-3.5c1.3-0.5,3.2-1.9,3.9-0.8c0.7,1,1.2,0.4,0.8,2
	C61.5,138.7,58.2,140.1,57.1,139.5z"/>
<path class="st3" d="M78.4,146.8c-0.8,0.2-1.3-0.3-1.8-0.6c-0.5-0.4-0.7-1.2,0-1.2c0.7,0,2.8,0.5,2.7,0.6
	C79.2,145.6,78.8,146.6,78.4,146.8z"/>
<path class="st3" d="M92.8,144.5c-0.3-0.5-0.3-1.8,0-2.3c0.4-0.5,1.9-1,2.4-0.6c0.4,0.3,0,1,0,2c0,1-0.7,1.8-0.8,1.7
	C94.4,145.2,93,144.9,92.8,144.5z"/>
<path class="st3" d="M79,137.8c-0.6-0.7-0.8-2.8-0.5-3.7c0.4-1.1,2.5-2.5,4.2-2c1.6,0.5,4.2,1.4,3.3,2.9c-0.8,1.5-0.9,2.4-1.5,2.9
	c-0.5,0.4-1.9,0.8-2.6,0.8C81.1,138.6,79.5,138.4,79,137.8z"/>
<path class="st3" d="M47.9,118.6c0.4,0.1,1,1,1,1.2c0,0.2-0.4,1.4-1.1,1.1c-0.7-0.4-1.1-0.3-1.3-0.9
	C46.1,119.3,47.4,118.5,47.9,118.6z"/>
<path class="st3" d="M109.9,155.9c0.2,0.3,0.1,1.4-0.6,1.4c-0.6,0-1.6,0.2-1.7-0.3c-0.1-0.5-0.4-0.4,0-0.9
	C108,155.5,109.5,155.5,109.9,155.9z"/>
<path class="st3" d="M96.9,157.4c0.1,0.4-0.1,1.3-0.4,1.6c-0.3,0.4-1.4,0.6-2,0.2c-0.6-0.5-1.5-1.2-0.9-1.7c0.6-0.5,0.7-0.8,1.1-0.9
	c0.3-0.1,0.9,0,1.2,0.1C96.1,156.7,96.7,157.1,96.9,157.4z"/>
<g>
	<g>
		<path class="st4" d="M52.1,108.2c0,0,3,4,6.6,7.7c3.6,3.8,6.7,6.3,6.7,6.3c0.4,0.3,0.8,0.6,1.3,0.9c1,0.6,3.1,0.9,5.2,0.9
			c2.1,0,4.2-0.2,4.9-0.7c0.6-0.4,1.1-0.9,1.7-1.5l27.1-28.4c3.6-3.8,3.6-9.8,0-13.6L99.8,74L98,72l-5.6-5.9
			c-3.6-3.8-9.4-3.8-12.9,0L52.4,94.6C48.8,98.4,48.5,103.1,52.1,108.2z"/>
		<path class="st5" d="M104.2,78.5l-5.6-5.9l-1.9-2l-5.6-5.9c-1.3-1.3-2.8-2.2-4.5-2.6l4,4.2l1.9,2l5.6,5.9c3.6,3.8,3.6,9.8,0,13.6
			L71,116.3c-0.5,0.6-1.1,1.1-1.7,1.5c-0.7,0.5-2.7,0.7-4.9,0.7c-1.3,0-2.5-0.1-3.5-0.4c1.9,1.8,3.2,2.8,3.2,2.8
			c0.4,0.3,0.8,0.6,1.3,0.9c1,0.6,3.1,0.9,5.2,0.9c2.1,0,4.2-0.2,4.9-0.7c0.6-0.4,1.1-0.9,1.7-1.5l27.1-28.4
			C107.7,88.4,107.7,82.3,104.2,78.5z"/>
		<path class="st6" d="M69.7,80.1L54.6,96L53,97.7l-0.2,0.2c-2.2,2.3,10.7,15.7,12.8,13.5l0.2-0.2l1.5-1.6l15.2-15.9L69.7,80.1z"/>
		<polygon class="st7" points="116.5,67.7 103.7,54.2 155.3,0 181.2,0 		"/>
		<polygon class="st8" points="103.7,54.2 97.2,47.5 142.4,0 155.3,0 		"/>
		<linearGradient id="SVGID_3_" gradientUnits="userSpaceOnUse" x1="152.0077" y1="30.795" x2="185.3336" y2="64.121">
			<stop  offset="0" style="stop-color:#DB7A14"/>
			<stop  offset="9.974782e-03" style="stop-color:#DB7B18"/>
			<stop  offset="8.891143e-02" style="stop-color:#DB8335"/>
			<stop  offset="0.1735" style="stop-color:#DB894B"/>
			<stop  offset="0.2655" style="stop-color:#DB8E5B"/>
			<stop  offset="0.3701" style="stop-color:#DB9064"/>
			<stop  offset="0.5149" style="stop-color:#DB9167"/>
		</linearGradient>
		<polygon class="st9" points="122.9,74.5 116.5,67.7 181.2,0 194,0 		"/>
		<polygon class="st10" points="123.4,74.1 97.7,47 99.6,45 125.3,72.1 		"/>
		<polygon class="st11" points="88.3,113.3 60.3,83.9 97.5,44.8 125.5,74.2 		"/>
		
			<linearGradient id="SVGID_4_" gradientUnits="userSpaceOnUse" x1="-11704.46" y1="-178.0001" x2="-11660.5645" y2="-178.0001" gradientTransform="matrix(-0.6956 -0.6955 0.6956 -0.6955 -7918.2012 -8178.7036)">
			<stop  offset="0.1165" style="stop-color:#231F20"/>
			<stop  offset="0.7018" style="stop-color:#FFFFFF"/>
		</linearGradient>
		<polygon class="st12" points="74.6,97.8 63.5,86.1 99.5,48.2 110.6,59.9 		"/>
		
			<linearGradient id="SVGID_5_" gradientUnits="userSpaceOnUse" x1="-10134.5137" y1="-283.4961" x2="-10169.6406" y2="-283.4961" gradientTransform="matrix(-0.9414 -0.9217 0.707 -0.7072 -9256.4697 -9470.9678)">
			<stop  offset="0" style="stop-color:#FFFFFF"/>
			<stop  offset="1" style="stop-color:#231F20"/>
		</linearGradient>
		<polygon class="st13" points="85.2,109.8 77.8,102.2 115,63.2 122.3,70.7 		"/>
		<g>
			<g class="st14">
				<g>
					<polygon class="st15" points="99.7,101.2 71.7,71.8 72.9,70.6 100.9,100 					"/>
				</g>
				<g>
					<polygon class="st15" points="97,104.1 69,74.7 70.2,73.4 98.2,102.9 					"/>
				</g>
				<g>
					<polygon class="st15" points="94.3,107 66.3,77.6 67.5,76.3 95.5,105.7 					"/>
				</g>
			</g>
		</g>
		<g>
			<g class="st14">
				<g>
					<polygon class="st15" points="119.7,80.2 91.7,50.8 92.9,49.6 120.9,79 					"/>
				</g>
				<g>
					<polygon class="st15" points="117,83.1 89,53.7 90.2,52.4 118.2,81.8 					"/>
				</g>
				<g>
					<polygon class="st15" points="114.3,86 86.3,56.5 87.5,55.3 115.5,84.7 					"/>
				</g>
			</g>
		</g>
	</g>
	<g>
		<polygon class="st5" points="88.3,113.3 60.3,83.9 61.5,82.6 89.5,112 		"/>
	</g>
	<g>
		<polygon class="st16" points="124.3,75.5 96.3,46.1 97.5,44.8 125.4,74.2 		"/>
	</g>
	<g>
		<polygon class="st17" points="110.9,61.5 99.3,49.3 100.5,48.1 112.1,60.3 		"/>
	</g>
</g>
</svg>
