<?xml version="1.0" encoding="utf-8"?>
<!-- Generator: Adobe Illustrator 21.0.0, SVG Export Plug-In . SVG Version: 6.00 Build 0)  -->
<svg version="1.1" id="Layer_1" xmlns="http://www.w3.org/2000/svg" xmlns:xlink="http://www.w3.org/1999/xlink" x="0px" y="0px"
	 viewBox="0 0 422 336" style="enable-background:new 0 0 422 336;" xml:space="preserve">
<style type="text/css">
	.st0{fill:#EAE9E9;}
	.st1{fill:#D3D4D5;}
	.st2{fill:#E84D49;}
	.st3{opacity:0.5;fill:#9E1F24;}
	.st4{opacity:0.5;fill:#FFFFFF;}
</style>
<path class="st0" d="M211.5,17.1C128,17.1,60.4,84.8,60.4,168.2c0,83.4,67.6,151.1,151.1,151.1c83.4,0,151.1-67.6,151.1-151.1
	C362.6,84.8,294.9,17.1,211.5,17.1z M211.5,257.7c-49.4,0-89.4-40-89.4-89.4c0-49.4,40-89.4,89.4-89.4c49.4,0,89.4,40,89.4,89.4
	C300.9,217.6,260.9,257.7,211.5,257.7z"/>
<path class="st1" d="M211.5,59.4c-47.6,0-86.1,38.6-86.1,86.1c0,3.9,0.3,7.7,0.8,11.4c5.6-42.2,41.6-74.7,85.3-74.7
	c43.7,0,79.8,32.6,85.3,74.7c0.5-3.7,0.8-7.5,0.8-11.4C297.6,97.9,259,59.4,211.5,59.4z"/>
<path class="st1" d="M211.5,291c-76.5,0-139.2-59.1-145-134.1c-0.3,3.8-0.5,7.5-0.5,11.4c0,80.4,65.1,145.5,145.5,145.5
	c80.4,0,145.5-65.1,145.5-145.5c0-3.8-0.2-7.6-0.5-11.4C350.7,231.9,288,291,211.5,291z"/>
<path class="st2" d="M211.5,13.6c-28.2,0-54.4,8.5-76.2,23.2l37,57c11.1-7.7,24.6-12.3,39.2-12.3c14.6,0,28.1,4.5,39.2,12.3l37-57
	C265.9,22.2,239.7,13.6,211.5,13.6z"/>
<path class="st2" d="M211.5,322c-30.5,0-58.8-8.2-82.3-22.3l39.9-54.8c12,7.4,26.6,11.8,42.4,11.8c15.7,0,30.3-4.4,42.4-11.8
	l39.9,54.8C270.3,313.8,241.9,322,211.5,322z"/>
<path class="st3" d="M211.5,61.2c-18.7,0-36,5.7-50.4,15.3l11.2,17.3c11.1-7.7,24.6-12.3,39.2-12.3c14.6,0,28.1,4.5,39.2,12.3
	l11.2-17.3C247.4,66.9,230.1,61.2,211.5,61.2z"/>
<path class="st2" d="M363.2,168.9c0-29.4-8.1-56.8-22-79.5L287,128c7.4,11.6,11.7,25.7,11.7,40.9s-4.3,29.3-11.7,40.9l54.2,38.6
	C355.1,225.7,363.2,198.3,363.2,168.9z"/>
<path class="st3" d="M211.5,301.7c-26,0-50.5-6-71.7-16.6l-10.6,14.5c23.5,14.1,51.8,22.3,82.3,22.3c30.5,0,58.8-8.2,82.3-22.3
	l-10.6-14.5C262,295.7,237.5,301.7,211.5,301.7z"/>
<path class="st2" d="M58.4,168.9c0-27.6,8.4-53.2,22.7-74.5l55.7,36.1c-7.6,10.9-12,24.1-12,38.3c0,14.2,4.4,27.5,12,38.3
	l-55.7,36.1C66.7,222.1,58.4,196.5,58.4,168.9z"/>
<path class="st3" d="M136.8,130.6L122,121c-9.1,13.7-14.5,30.2-14.5,47.9c0,17.7,5.4,34.2,14.5,47.9l14.7-9.6
	c-7.6-10.9-12-24.1-12-38.3C124.8,154.7,129.2,141.4,136.8,130.6z"/>
<path class="st3" d="M286.7,129.4l13.8-9.9c8.6,14.2,13.6,31.1,13.6,49.4c0,18.3-5,35.2-13.6,49.4l-13.8-9.9
	c7.1-11.2,11.3-24.8,11.3-39.5S293.8,140.6,286.7,129.4z"/>
<path class="st4" d="M86.5,226.4c-1.1,0-2.2-0.7-2.7-1.8c-7.9-17.8-11.9-36.8-11.9-56.4c0-21.2,4.6-41.6,13.8-60.5
	c0.7-1.5,2.5-2.1,4-1.4c1.5,0.7,2.1,2.5,1.4,4c-8.7,18.1-13.2,37.6-13.2,57.9c0,18.8,3.8,37,11.4,54c0.7,1.5,0,3.3-1.5,3.9
	C87.3,226.3,86.9,226.4,86.5,226.4z"/>
<path class="st4" d="M158.3,45.3c-1.2,0-2.3-0.7-2.7-1.8c-0.6-1.5,0.1-3.3,1.6-3.9c7.2-3,14.6-5.5,22.1-7.2c1.6-0.4,3.2,0.6,3.6,2.2
	c0.4,1.6-0.6,3.2-2.2,3.6c-7.2,1.7-14.4,4-21.2,6.9C159.1,45.3,158.7,45.3,158.3,45.3z"/>
<path class="st4" d="M269.8,47.6c-0.4,0-0.9-0.1-1.3-0.3c-17.9-8.5-37.1-12.7-57-12.7c-4.4,0-8.8,0.2-13.1,0.6
	c-1.7,0.2-3.1-1-3.2-2.7c-0.2-1.6,1-3.1,2.7-3.2c4.5-0.4,9.1-0.7,13.7-0.7c20.8,0,40.9,4.5,59.5,13.3c1.5,0.7,2.1,2.5,1.4,4
	C271.9,47,270.9,47.6,269.8,47.6z"/>
<path class="st4" d="M211.5,266.2c-13.3,0-26.3-2.6-38.4-7.8c-1.5-0.6-2.2-2.4-1.6-3.9c0.6-1.5,2.4-2.2,3.9-1.6
	c11.4,4.9,23.6,7.4,36.1,7.4c13.1,0,25.7-2.7,37.6-8c1.5-0.7,3.3,0,3.9,1.5c0.7,1.5,0,3.3-1.5,3.9
	C238.8,263.3,225.4,266.2,211.5,266.2z"/>
</svg>
